<mxfile host="app.diagrams.net" agent="Mozilla/5.0 (Windows NT 10.0; Win64; x64) AppleWebKit/537.36 (KHTML, like Gecko) Chrome/138.0.0.0 Safari/537.36 Edg/138.0.0.0" version="28.0.4">
  <diagram name="Page-1" id="cqFNTiU6uErdtZ2TDNFi">
    <mxGraphModel dx="778" dy="430" grid="0" gridSize="10" guides="1" tooltips="1" connect="1" arrows="1" fold="1" page="0" pageScale="1" pageWidth="827" pageHeight="1169" math="0" shadow="0">
      <root>
        <mxCell id="0" />
        <mxCell id="1" parent="0" />
        <mxCell id="ZJ-lILAAd4j_UfSkXZZT-5" value="" style="whiteSpace=wrap;html=1;aspect=fixed;" vertex="1" parent="1">
          <mxGeometry x="692" y="105" width="98" height="98" as="geometry" />
        </mxCell>
        <mxCell id="MjwD6e0wirsRCNaimnq1-3" value="Serveur Web" style="shape=umlActor;verticalLabelPosition=bottom;verticalAlign=top;html=1;" parent="1" vertex="1">
          <mxGeometry x="722" y="114" width="30" height="59" as="geometry" />
        </mxCell>
        <mxCell id="MjwD6e0wirsRCNaimnq1-4" value="Administrateur&lt;div&gt;&lt;br&gt;&lt;/div&gt;" style="shape=umlActor;verticalLabelPosition=bottom;verticalAlign=top;html=1;" parent="1" vertex="1">
          <mxGeometry x="150" y="176" width="30" height="60" as="geometry" />
        </mxCell>
        <mxCell id="MjwD6e0wirsRCNaimnq1-6" value="&lt;br&gt;&lt;div&gt;&lt;br&gt;&lt;/div&gt;" style="html=1;whiteSpace=wrap;" parent="1" vertex="1">
          <mxGeometry x="232" y="72" width="407" height="368" as="geometry" />
        </mxCell>
        <mxCell id="MjwD6e0wirsRCNaimnq1-7" value="Serveur qui collecte les logs" style="html=1;whiteSpace=wrap;" parent="1" vertex="1">
          <mxGeometry x="340" y="72" width="165" height="29" as="geometry" />
        </mxCell>
        <mxCell id="MjwD6e0wirsRCNaimnq1-9" value="Envoyer les logs au collecteur" style="ellipse;whiteSpace=wrap;html=1;" parent="1" vertex="1">
          <mxGeometry x="477" y="173" width="151" height="32" as="geometry" />
        </mxCell>
        <mxCell id="MjwD6e0wirsRCNaimnq1-11" value="Analyser les logs reçus" style="ellipse;whiteSpace=wrap;html=1;" parent="1" vertex="1">
          <mxGeometry x="310" y="388" width="140" height="32" as="geometry" />
        </mxCell>
        <mxCell id="MjwD6e0wirsRCNaimnq1-12" value="Transmettre à un SIEM" style="ellipse;whiteSpace=wrap;html=1;" parent="1" vertex="1">
          <mxGeometry x="488" y="361" width="140" height="36" as="geometry" />
        </mxCell>
        <mxCell id="MjwD6e0wirsRCNaimnq1-13" value="Configurer la réception syslog" style="ellipse;whiteSpace=wrap;html=1;" parent="1" vertex="1">
          <mxGeometry x="263" y="302" width="169" height="35" as="geometry" />
        </mxCell>
        <mxCell id="MjwD6e0wirsRCNaimnq1-30" value="Purger les anciens logs" style="ellipse;whiteSpace=wrap;html=1;" parent="1" vertex="1">
          <mxGeometry x="488" y="254" width="140" height="43" as="geometry" />
        </mxCell>
        <mxCell id="MjwD6e0wirsRCNaimnq1-57" style="edgeStyle=none;curved=1;rounded=0;orthogonalLoop=1;jettySize=auto;html=1;exitX=0.5;exitY=0.5;exitDx=0;exitDy=0;exitPerimeter=0;fontSize=12;startSize=8;endSize=8;" parent="1" source="MjwD6e0wirsRCNaimnq1-3" target="MjwD6e0wirsRCNaimnq1-9" edge="1">
          <mxGeometry relative="1" as="geometry" />
        </mxCell>
        <mxCell id="MjwD6e0wirsRCNaimnq1-58" style="edgeStyle=none;curved=1;rounded=0;orthogonalLoop=1;jettySize=auto;html=1;exitX=0.5;exitY=0.5;exitDx=0;exitDy=0;exitPerimeter=0;fontSize=12;startSize=8;endSize=8;" parent="1" source="MjwD6e0wirsRCNaimnq1-4" edge="1">
          <mxGeometry relative="1" as="geometry">
            <mxPoint x="307" y="207" as="targetPoint" />
          </mxGeometry>
        </mxCell>
        <mxCell id="MjwD6e0wirsRCNaimnq1-116" value="" style="edgeStyle=none;curved=1;rounded=0;orthogonalLoop=1;jettySize=auto;html=1;fontSize=12;startSize=8;endSize=8;" parent="1" source="MjwD6e0wirsRCNaimnq1-72" target="MjwD6e0wirsRCNaimnq1-30" edge="1">
          <mxGeometry relative="1" as="geometry" />
        </mxCell>
        <mxCell id="MjwD6e0wirsRCNaimnq1-72" value="" style="html=1;whiteSpace=wrap;" parent="1" vertex="1">
          <mxGeometry x="722" y="228" width="96" height="88" as="geometry" />
        </mxCell>
        <mxCell id="MjwD6e0wirsRCNaimnq1-117" value="" style="edgeStyle=none;curved=1;rounded=0;orthogonalLoop=1;jettySize=auto;html=1;fontSize=12;startSize=8;endSize=8;" parent="1" source="MjwD6e0wirsRCNaimnq1-73" target="MjwD6e0wirsRCNaimnq1-12" edge="1">
          <mxGeometry relative="1" as="geometry" />
        </mxCell>
        <mxCell id="MjwD6e0wirsRCNaimnq1-73" value="" style="html=1;whiteSpace=wrap;" parent="1" vertex="1">
          <mxGeometry x="725" y="354" width="70" height="83" as="geometry" />
        </mxCell>
        <mxCell id="MjwD6e0wirsRCNaimnq1-94" value="Rsylog" style="shape=umlActor;verticalLabelPosition=bottom;verticalAlign=top;html=1;" parent="1" vertex="1">
          <mxGeometry x="754.75" y="364" width="17.5" height="35" as="geometry" />
        </mxCell>
        <mxCell id="MjwD6e0wirsRCNaimnq1-96" value="Script&amp;nbsp;" style="shape=umlActor;verticalLabelPosition=bottom;verticalAlign=top;html=1;" parent="1" vertex="1">
          <mxGeometry x="756.5" y="242" width="30" height="47" as="geometry" />
        </mxCell>
        <mxCell id="MjwD6e0wirsRCNaimnq1-104" value="Extends" style="endArrow=block;endSize=16;endFill=0;html=1;rounded=0;fontSize=12;curved=1;exitX=0.564;exitY=0.98;exitDx=0;exitDy=0;exitPerimeter=0;" parent="1" target="MjwD6e0wirsRCNaimnq1-13" edge="1">
          <mxGeometry width="160" relative="1" as="geometry">
            <mxPoint x="396.96000000000004" y="222.34000000000003" as="sourcePoint" />
            <mxPoint x="534" y="245" as="targetPoint" />
          </mxGeometry>
        </mxCell>
        <mxCell id="MjwD6e0wirsRCNaimnq1-105" value="Extends" style="endArrow=block;endSize=16;endFill=0;html=1;rounded=0;fontSize=12;curved=1;exitX=0.5;exitY=1;exitDx=0;exitDy=0;" parent="1" source="MjwD6e0wirsRCNaimnq1-13" target="MjwD6e0wirsRCNaimnq1-11" edge="1">
          <mxGeometry width="160" relative="1" as="geometry">
            <mxPoint x="281" y="354" as="sourcePoint" />
            <mxPoint x="441" y="354" as="targetPoint" />
          </mxGeometry>
        </mxCell>
        <mxCell id="MjwD6e0wirsRCNaimnq1-110" value="" style="endArrow=block;dashed=1;endFill=0;endSize=12;html=1;rounded=0;fontSize=12;curved=1;exitX=0.933;exitY=0.781;exitDx=0;exitDy=0;exitPerimeter=0;entryX=0;entryY=0.5;entryDx=0;entryDy=0;" parent="1" source="MjwD6e0wirsRCNaimnq1-13" target="MjwD6e0wirsRCNaimnq1-12" edge="1">
          <mxGeometry width="160" relative="1" as="geometry">
            <mxPoint x="413.00000000000006" y="330" as="sourcePoint" />
            <mxPoint x="458" y="340" as="targetPoint" />
          </mxGeometry>
        </mxCell>
        <mxCell id="MjwD6e0wirsRCNaimnq1-111" value="" style="endArrow=block;dashed=1;endFill=0;endSize=12;html=1;rounded=0;fontSize=12;curved=1;entryX=0.067;entryY=0.798;entryDx=0;entryDy=0;entryPerimeter=0;exitX=0.957;exitY=0.324;exitDx=0;exitDy=0;exitPerimeter=0;" parent="1" source="MjwD6e0wirsRCNaimnq1-13" target="MjwD6e0wirsRCNaimnq1-30" edge="1">
          <mxGeometry width="160" relative="1" as="geometry">
            <mxPoint x="374" y="245" as="sourcePoint" />
            <mxPoint x="534" y="245" as="targetPoint" />
          </mxGeometry>
        </mxCell>
        <mxCell id="MjwD6e0wirsRCNaimnq1-113" value="Extends" style="endArrow=block;endSize=16;endFill=0;html=1;rounded=0;fontSize=12;curved=1;entryX=0.562;entryY=0.037;entryDx=0;entryDy=0;entryPerimeter=0;exitX=0.5;exitY=1;exitDx=0;exitDy=0;" parent="1" source="MjwD6e0wirsRCNaimnq1-30" target="MjwD6e0wirsRCNaimnq1-12" edge="1">
          <mxGeometry width="160" relative="1" as="geometry">
            <mxPoint x="445" y="291" as="sourcePoint" />
            <mxPoint x="605" y="291" as="targetPoint" />
          </mxGeometry>
        </mxCell>
        <mxCell id="ZJ-lILAAd4j_UfSkXZZT-6" value="Créer les comptes utilisateurs" style="ellipse;whiteSpace=wrap;html=1;" vertex="1" parent="1">
          <mxGeometry x="313" y="193" width="140" height="43" as="geometry" />
        </mxCell>
        <mxCell id="ZJ-lILAAd4j_UfSkXZZT-7" value="Envoyer une demande de logs" style="ellipse;whiteSpace=wrap;html=1;" vertex="1" parent="1">
          <mxGeometry x="256" y="120" width="154" height="50" as="geometry" />
        </mxCell>
        <mxCell id="ZJ-lILAAd4j_UfSkXZZT-10" value="" style="endArrow=open;endFill=1;endSize=12;html=1;rounded=0;exitX=0.5;exitY=0.5;exitDx=0;exitDy=0;exitPerimeter=0;" edge="1" parent="1" source="MjwD6e0wirsRCNaimnq1-4">
          <mxGeometry width="160" relative="1" as="geometry">
            <mxPoint x="96" y="149" as="sourcePoint" />
            <mxPoint x="256" y="149" as="targetPoint" />
          </mxGeometry>
        </mxCell>
        <mxCell id="ZJ-lILAAd4j_UfSkXZZT-11" value="Extends" style="endArrow=block;endSize=16;endFill=0;html=1;rounded=0;exitX=1;exitY=0.5;exitDx=0;exitDy=0;entryX=0;entryY=0;entryDx=0;entryDy=0;" edge="1" parent="1" source="ZJ-lILAAd4j_UfSkXZZT-7" target="MjwD6e0wirsRCNaimnq1-9">
          <mxGeometry width="160" relative="1" as="geometry">
            <mxPoint x="395" y="235" as="sourcePoint" />
            <mxPoint x="499" y="171" as="targetPoint" />
          </mxGeometry>
        </mxCell>
      </root>
    </mxGraphModel>
  </diagram>
</mxfile>
